REM MD5 c236c3ef0c845027ac5f9a64e64f998e
FILE "Shadow Madness (Germany) (Disc 1).bin" BINARY
  TRACK 01 MODE2/2352
    INDEX 01 00:00:00
  TRACK 02 AUDIO
    INDEX 00 63:21:23
    INDEX 01 63:23:23
  TRACK 03 AUDIO
    INDEX 00 67:28:09
    INDEX 01 67:30:09
REM LEADOUT 70:37:61
